# xmcd
#
# Track frame offsets:
#	150
#	15528
#	31366
#	55104
#	69969
#	88606
#	104260
#	126979
#	149448
#	177463
#
# Disc length: 2643 seconds
#
# Revision: 0
# Processed by: cddbd v1.5.2PL0 Copyright (c) Steve Scherf et al.
# Submitted via: EasyCDDAExtractor 10.0.2.1
#
DISCID=850a510a
DTITLE=Purple Bluze - Just Right Now
DYEAR=2014
DGENRE=Blues
TTITLE0=Please Devil Take My Woman
TTITLE1=X Press Of Love
TTITLE2=Go Astray
TTITLE3=Fire On My Wire
TTITLE4=A Broken Heart Will Never Cry
TTITLE5=Left My Love In Town
TTITLE6=Harlequin
TTITLE7=Inside Out
TTITLE8=Miracle
TTITLE9=Right To Be Wrong
EXTD=
EXTT0=
EXTT1=
EXTT2=
EXTT3=
EXTT4=
EXTT5=
EXTT6=
EXTT7=
EXTT8=
EXTT9=
PLAYORDER=
